Coordinates
version=1
nRows=17
nColumns=36
inDegrees=yes

Units are S.I. units (second, meters, Newtons, ...)
If the header above contains a line with 'inDegrees', this indicates whether rotational values are in degrees (yes) or radians (no).

endheader
time	pelvis_tilt	pelvis_list	pelvis_rotation	pelvis_tx	pelvis_ty	pelvis_tz	hip_flexion_r	hip_adduction_r	hip_rotation_r	knee_angle_r	knee_angle_r_beta	ankle_angle_r	subtalar_angle_r	mtp_angle_r	hip_flexion_l	hip_adduction_l	hip_rotation_l	knee_angle_l	knee_angle_l_beta	ankle_angle_l	subtalar_angle_l	mtp_angle_l	lumbar_extension	lumbar_bending	lumbar_rotation	arm_flex_r	arm_add_r	arm_rot_r	elbow_flex_r	pro_sup_r	arm_flex_l	arm_add_l	arm_rot_l	elbow_flex_l	pro_sup_l
      4.36666670	     -2.34199177	      1.58869907	      0.39612786	     -0.12398021	      1.24500995	      0.05791370	      6.38899241	     -4.27091755	     -3.44521230	      7.71876474	      0.13471786	     12.50459714	      3.05608589	     -7.49999987	      2.33680648	      0.62740663	    -13.27873036	      3.28536568	      0.05734045	      9.77445224	      6.92494534	     -7.49999987	      2.61997611	     -0.33548900	      1.46858308	    -16.82109379	    -18.19255979	      7.45195769	     76.67442001	     75.67815190	    -20.72110220	    -10.79623582	      3.13109200	     80.87743148	     89.49276824
      4.38333330	     -2.45791578	      1.65685086	      0.60603030	     -0.12525728	      1.24269478	      0.05957702	      7.03375410	     -4.32861906	     -3.88105584	      8.28315131	      0.14456826	     12.77190526	      2.81219641	     -7.49999987	      2.63318229	      0.62850529	    -13.50834052	      3.28774606	      0.05738199	     10.39124933	      7.63595297	     -7.49999987	      2.38481937	     -0.20218249	      1.27244026	    -15.48041465	    -17.35903052	      7.22907250	     75.06916936	     75.10788457	    -19.14025460	     -9.64941211	      3.09208567	     78.76209727	     88.78048636
      4.40000000	     -2.63208457	      1.73317276	      0.88837634	     -0.12519721	      1.24080741	      0.06017254	      7.51365307	     -4.37373608	     -4.15795869	      8.44708667	      0.14742947	     13.07570665	      2.74817515	     -7.49999987	      2.96828113	      0.64743623	    -13.56712532	      3.35391148	      0.05853680	     11.13687522	      8.22395033	     -7.49999987	      2.30842780	     -0.03635726	      1.04791672	    -14.12245853	    -16.67665079	      7.20351907	     73.64323340	     74.08540139	    -17.46494020	     -8.73362649	      3.44241802	     76.79751156	     87.38848466
      4.41666670	     -2.69148291	      1.86676675	      1.11549783	     -0.12940237	      1.24586800	      0.06298985	      7.66216838	     -4.50152769	     -4.67430698	      8.57137699	      0.14959875	     12.90395037	      2.66177745	     -7.49999987	      3.12426659	      0.72801254	    -13.75607774	      3.16328547	      0.05520975	     11.21007644	      8.81896801	     -7.49999987	      1.91206380	      0.06533479	      0.80372051	    -12.59669772	    -15.88916343	      7.20826488	     72.45775362	     74.39556616	    -15.79065686	     -7.90696796	      3.62623819	     75.01562953	     87.95748907
      4.43333330	     -3.66918282	      2.04237005	      1.26641883	     -0.12966100	      1.24158134	      0.06480659	      8.96409892	     -4.67144832	     -4.86086367	      8.92145039	      0.15570868	     12.82407496	      2.05430870	     -7.49999987	      4.23481156	      0.90166437	    -13.26789180	      3.00662003	      0.05247542	     11.25813734	      7.94301069	     -7.49999987	      2.52393399	      0.14864668	      0.75911377	    -11.75134538	    -15.24040798	      7.30751941	     72.50592666	     73.38180562	    -14.94392656	     -7.29752375	      3.85433043	     74.81127833	     86.40356740
      4.45000000	     -3.35376309	      2.19779585	      1.49224643	     -0.12959282	      1.24517839	      0.06748898	      8.46740332	     -4.67783113	     -4.86498760	      8.41211685	      0.14681914	     13.20487357	      2.44633718	     -7.49999987	      3.81798090	      0.94714429	    -13.42562161	      2.62486549	      0.04581255	     11.17310657	      9.17533065	     -7.49999987	      1.77237956	      0.19130262	      0.60261430	    -10.14571103	    -14.37908476	      7.66552704	     70.75337192	     73.46477523	    -13.14781919	     -6.71638779	      4.41576066	     72.50778960	     86.60939032
      4.46666670	     -3.52654026	      2.30037438	      1.70262910	     -0.12979466	      1.24492772	      0.06900131	      8.41107306	     -4.70135854	     -5.14977963	      8.05845507	      0.14064657	     13.17748348	      2.88423238	     -7.49999987	      4.05472622	      0.92827775	    -13.61508053	      2.57800105	      0.04499461	     11.50420953	     10.31182776	     -7.49999987	      1.55268983	      0.33290686	      0.42910936	     -9.17871082	    -13.72895368	      7.92815072	     70.16202563	     77.33886752	    -12.29475834	     -5.98976030	      4.07322589	     71.81971684	     92.85938165
      4.48333330	     -3.87179342	      2.40977368	      1.77596644	     -0.13479510	      1.24296842	      0.07300064	      8.75054722	     -4.63301018	     -5.18000419	      7.74379242	      0.13515467	     13.24539297	      2.88338346	     -7.49999987	      4.42239410	      0.93503922	    -13.55063067	      2.34285698	      0.04089057	     11.53644482	     10.35147681	     -7.49999987	      1.28550273	      0.42499373	      0.51833900	     -8.38010561	    -13.07894677	      8.13189308	     70.41148978	     77.35673915	    -11.42650584	     -5.48184864	      4.25930255	     72.01099610	     92.88151078
      4.50000000	     -4.13998626	      2.48432476	      2.00129124	     -0.13756428	      1.24185888	      0.07472090	      8.95108784	     -4.54070025	     -5.22737864	      7.27841903	      0.12703238	     13.16215918	      2.85926246	     -7.49999987	      4.76937810	      0.90089292	    -13.06714990	      2.20289912	      0.03844784	     11.36063690	     10.43553113	     -7.49999987	      1.16504167	      0.50071887	      0.38730787	     -6.91763572	    -12.61280119	      9.38878040	     69.88409754	     77.03102876	     -9.95895558	     -5.37494624	      5.44002611	     71.08003643	     92.40275659
      4.51666670	     -4.51328974	      2.58693294	      2.18418773	     -0.13896646	      1.24211886	      0.07776817	      9.27642832	     -4.47084879	     -5.32562468	      6.75767811	      0.11794373	     12.93718253	      2.74143263	     -7.49999987	      5.23007677	      0.88835623	    -12.98768902	      2.07400126	      0.03619815	     11.13540738	     10.64653465	     -7.49999987	      1.02585731	      0.50673575	      0.39659164	     -5.63829636	    -12.13544431	     10.49323443	     69.80053160	     75.65054969	     -8.61504656	     -5.29955769	      6.67164092	     70.78256180	     90.40956462
      4.53333330	     -4.83644869	      2.64885397	      2.39560784	     -0.13895167	      1.24414285	      0.08122889	      9.50039614	     -4.35181374	     -5.59053042	      6.27869144	      0.10958384	     12.29781891	      2.73685735	     -7.49999987	      5.59919427	      0.79407404	    -13.06424296	      1.96749550	      0.03433927	     10.88375029	     11.27578589	     -7.49999987	      0.86699176	      0.44574747	      0.22218649	     -4.46487556	    -11.41944840	     11.30571656	     69.51200887	     77.34710053	     -7.62393314	     -5.07359515	      6.85987470	     70.73540597	     93.63745482
      4.55000000	     -5.11709645	      2.72025394	      2.68148183	     -0.14004941	      1.24230009	      0.08332827	      9.70844113	     -4.28265897	     -5.95911356	      5.92662783	      0.10343917	     11.45597888	      2.41315081	     -7.49999987	      5.93687607	      0.74404727	    -13.04316446	      1.84552019	      0.03221040	     10.51577084	     11.54978149	     -7.49999987	      0.63268515	      0.33692382	      0.14741073	     -3.41088116	    -10.90758556	     12.36653370	     69.68586739	     75.69924695	     -6.37746550	     -5.10524676	      8.05667536	     70.88472111	     91.37226811
      4.56666670	     -5.42326481	      2.73479897	      2.95918939	     -0.14210726	      1.23363452	      0.08559529	      9.89487434	     -4.13709139	     -6.22092742	      5.60657931	      0.09785327	     11.19284619	      2.17258236	     -7.49999987	      6.41864573	      0.64295870	    -12.76264570	      1.80874962	      0.03156864	     10.31210144	     11.21812602	     -7.49999987	      0.49414762	      0.20975776	      0.02644447	     -2.34815222	    -10.47700125	     13.27478966	     70.22001867	     73.98281913	     -5.17330921	     -5.17971539	      9.29229253	     71.44741940	     88.14848071
      4.58333330	     -5.90238013	      2.72086636	      3.05771081	     -0.14351870	      1.23193539	      0.08735186	     10.51482338	     -4.02231826	     -6.55111516	      5.75238115	      0.10039799	     11.44240014	      2.33646446	     -7.49999987	      7.22949765	      0.45842497	    -13.05577603	      2.15067428	      0.03753635	     10.56950344	     11.73932142	     -7.49999987	      0.47337235	      0.10126245	      0.03280524	     -1.30878283	    -10.26911632	     14.39028329	     71.06073537	     74.15297501	     -4.17623901	     -5.27328757	     10.40865935	     72.28763182	     88.53956405
      4.60000000	     -6.41887326	      2.68924018	      3.15650662	     -0.14284939	      1.23237323	      0.08977335	     11.11667365	     -3.87654234	     -6.53956628	      5.86444203	      0.10235382	     11.72628803	      2.35312309	     -7.49999987	      8.10375827	      0.23986759	    -12.87504573	      2.68889809	      0.04693012	     10.60801811	     11.31139395	     -7.49999987	      0.60559348	     -0.02710297	     -0.12403929	     -0.39355627	     -9.68790046	     14.82139247	     71.36603615	     76.69329155	     -3.25282604	     -5.14310059	     10.79721111	     72.47994083	     93.02896435
      4.61666670	     -6.86322030	      2.63927510	      3.15180448	     -0.14347034	      1.23269942	      0.09252272	     11.58265175	     -3.68747824	     -6.44274360	      5.92305746	      0.10337685	     11.97140535	      2.51584662	     -7.49999987	      8.94225157	     -0.03978820	    -12.85361956	      3.35272831	      0.05851615	     10.75077538	     11.09324093	     -7.49999987	      0.69118422	     -0.13832021	     -0.24139489	      0.63588646	     -9.29986897	     15.80145116	     71.58609951	     75.68972426	     -2.10224934	     -5.25967661	     12.03124494	     72.47445741	     91.61561300
      4.63333330	     -7.33033530	      2.56447466	      3.07721781	     -0.14383881	      1.23638839	      0.09384918	     12.03755690	     -3.47705268	     -6.39660187	      5.94151517	      0.10369900	     11.99249318	      2.78079723	     -7.49999987	      9.77023874	     -0.30419153	    -13.00610140	      3.88498858	      0.06780584	     10.81897573	     11.10242912	     -7.49999987	      0.81155273	     -0.25561317	     -0.35945865	      1.60256649	     -8.81591021	     16.52964172	     71.49024512	     75.80785014	     -0.84381774	     -5.15471817	     12.93502636	     72.11478434	     91.80915526
